<svg width="400" height="400" viewBox="0 0 400 400" fill="none" xmlns="http://www.w3.org/2000/svg">
  <!-- Large background circle -->
  <circle cx="200" cy="200" r="120" fill="rgba(255,255,255,0.08)" />
  
  <!-- Medium decorative circles -->
  <circle cx="120" cy="150" r="8" fill="rgba(255,255,255,0.15)" />
  <circle cx="280" cy="160" r="6" fill="rgba(255,255,255,0.15)" />
  <circle cx="110" cy="250" r="6" fill="rgba(255,255,255,0.15)" />
  <circle cx="290" cy="240" r="8" fill="rgba(255,255,255,0.15)" />
  
  <!-- Document/Paper icon -->
  <rect x="155" y="150" width="90" height="110" rx="8" fill="white" />
  
  <!-- Document lines -->
  <rect x="170" y="170" width="60" height="4" rx="2" fill="#3b82f6" />
  <rect x="170" y="180" width="50" height="3" rx="1.5" fill="#93c5fd" />
  <rect x="170" y="188" width="55" height="3" rx="1.5" fill="#93c5fd" />
  <rect x="170" y="196" width="45" height="3" rx="1.5" fill="#93c5fd" />
  
  <!-- Approval badge/circle on document -->
  <circle cx="200" cy="230" r="22" fill="#2563eb" />
  
  <!-- Checkmark/Arrow in badge -->
  <path d="M200 220 L195 230 L200 235 L205 230 Z" fill="white" />
  
  <!-- Small decorative dots around main element -->
  <circle cx="250" cy="190" r="4" fill="rgba(255,255,255,0.2)" />
  <circle cx="150" cy="210" r="3" fill="rgba(255,255,255,0.2)" />
  <circle cx="240" cy="240" r="3" fill="rgba(255,255,255,0.2)" />
</svg>
